<?xml version="1.0" encoding="utf-8"?>
<!-- Generator: Adobe Illustrator 28.2.0, SVG Export Plug-In . SVG Version: 6.00 Build 0)  -->
<svg version="1.1" id="Logo" xmlns="http://www.w3.org/2000/svg" xmlns:xlink="http://www.w3.org/1999/xlink" x="0px" y="0px"
	 viewBox="0 0 64.9 72.2" style="enable-background:new 0 0 64.9 72.2;" xml:space="preserve">
<style type="text/css">
	.st0{fill:#44C8F5;}
</style>
<path class="st0" d="M60.5,14.8L36.9,1.2c-2.7-1.6-6.1-1.6-8.9,0L4.4,14.8C1.7,16.4,0,19.3,0,22.5v27.2c0,3.2,1.7,6.1,4.4,7.7L28,71
	c2.7,1.6,6.1,1.6,8.9,0l23.6-13.6c2.7-1.6,4.4-4.5,4.4-7.7V22.5C65,19.3,63.3,16.4,60.5,14.8z M24.1,23.7c-1.8,0-2.8,0.2-3.2,0.6
	c-0.3,0.4-0.5,1.1-0.6,2.1c-0.1,2.9-0.2,4.8-0.3,5.7c-0.1,0.9-0.4,1.7-0.8,2.5s-1.2,1.6-2.4,2.3c1.1,0.7,1.9,1.5,2.4,2.4
	s0.8,2.2,0.9,3.9l0.3,5.3c0.1,0.5,0.4,0.9,0.8,1.2c0.4,0.2,1.3,0.4,2.8,0.4v4.4h-1c-1.9,0-3.4-0.2-4.5-0.6c-1.1-0.4-1.8-1.2-2.3-2.2
	s-0.7-2.7-0.7-4.9c0-2.5-0.1-4.1-0.3-4.8s-0.5-1.3-1-1.9c-0.5-0.6-1.4-0.9-2.7-0.9v-4.4c1.3,0,2.3-0.4,3-1.2s1-2.5,1-5.2
	c0-2,0.1-3.6,0.2-4.6s0.5-1.8,1.1-2.5s1.3-1.2,2.3-1.5c0.9-0.3,2.2-0.4,3.9-0.4h1v4.3C24,23.7,24.1,23.7,24.1,23.7z M53.4,39.1
	c-1.4,0-2.3,0.4-3,1.2s-1,2.5-1,5.2c0,2-0.1,3.6-0.2,4.6c-0.1,1-0.5,1.8-1.1,2.5s-1.3,1.1-2.3,1.5c-0.9,0.3-2.2,0.4-3.9,0.4h-1v-4.4
	c1.7,0,2.8-0.2,3.2-0.5s0.6-1.1,0.6-2.2c0.1-3.1,0.2-5.1,0.3-6c0.2-0.9,0.5-1.7,0.9-2.5c0.5-0.8,1.2-1.4,2.2-2c-1-0.7-1.8-1.4-2.2-2
	c-0.4-0.7-0.7-1.4-0.8-2.2c-0.1-0.7-0.2-2.2-0.3-4.3s-0.2-3.3-0.3-3.6c-0.1-0.3-0.3-0.6-0.7-0.8c-0.4-0.2-1.3-0.3-2.9-0.3v-4.4h1
	c2,0,3.5,0.2,4.5,0.7c1.1,0.4,1.9,1.2,2.3,2.2c0.5,1,0.7,2.6,0.7,4.9c0,2.6,0.1,4.2,0.3,4.9c0.2,0.6,0.5,1.3,1,1.8
	c0.5,0.6,1.4,0.8,2.7,0.9C53.4,34.7,53.4,39.1,53.4,39.1z"/>
</svg>
