<?xml version="1.0" encoding="utf-8"?>
<!-- Generator: Adobe Illustrator 28.2.0, SVG Export Plug-In . SVG Version: 6.00 Build 0)  -->
<svg version="1.1" id="Logo" xmlns="http://www.w3.org/2000/svg" xmlns:xlink="http://www.w3.org/1999/xlink" x="0px" y="0px"
	 viewBox="0 0 64.9 72.2" style="enable-background:new 0 0 64.9 72.2;" xml:space="preserve">
<style type="text/css">
	.st0{fill:#44C8F5;}
	.st1{display:none;}
	.st2{display:inline;}
	.st3{fill:#FFFFFF;}
	.st4{fill:none;stroke:#FFFFFF;stroke-width:2.8346;stroke-linejoin:round;stroke-miterlimit:10;}
</style>
<path class="st0" d="M60.5,14.8L36.9,1.2c-2.7-1.6-6.1-1.6-8.9,0L4.4,14.8C1.7,16.4,0,19.3,0,22.5v27.2c0,3.2,1.7,6.1,4.4,7.7L28,71
	c2.7,1.6,6.1,1.6,8.9,0l23.6-13.6c2.7-1.6,4.4-4.5,4.4-7.7V22.5C65,19.3,63.3,16.4,60.5,14.8z M24.1,23.7c-1.8,0-2.8,0.2-3.2,0.6
	c-0.3,0.4-0.5,1.1-0.6,2.1c-0.1,2.9-0.2,4.8-0.3,5.7c-0.1,0.9-0.4,1.7-0.8,2.5s-1.2,1.6-2.4,2.3c1.1,0.7,1.9,1.5,2.4,2.4
	s0.8,2.2,0.9,3.9l0.3,5.3c0.1,0.5,0.4,0.9,0.8,1.2c0.4,0.2,1.3,0.4,2.8,0.4v4.4h-1c-1.9,0-3.4-0.2-4.5-0.6c-1.1-0.4-1.8-1.2-2.3-2.2
	s-0.7-2.7-0.7-4.9c0-2.5-0.1-4.1-0.3-4.8s-0.5-1.3-1-1.9c-0.5-0.6-1.4-0.9-2.7-0.9v-4.4c1.3,0,2.3-0.4,3-1.2s1-2.5,1-5.2
	c0-2,0.1-3.6,0.2-4.6s0.5-1.8,1.1-2.5s1.3-1.2,2.3-1.5c0.9-0.3,2.2-0.4,3.9-0.4h1v4.3C24,23.7,24.1,23.7,24.1,23.7z M53.4,39.1
	c-1.4,0-2.3,0.4-3,1.2s-1,2.5-1,5.2c0,2-0.1,3.6-0.2,4.6c-0.1,1-0.5,1.8-1.1,2.5s-1.3,1.1-2.3,1.5c-0.9,0.3-2.2,0.4-3.9,0.4h-1v-4.4
	c1.7,0,2.8-0.2,3.2-0.5s0.6-1.1,0.6-2.2c0.1-3.1,0.2-5.1,0.3-6c0.2-0.9,0.5-1.7,0.9-2.5c0.5-0.8,1.2-1.4,2.2-2c-1-0.7-1.8-1.4-2.2-2
	c-0.4-0.7-0.7-1.4-0.8-2.2c-0.1-0.7-0.2-2.2-0.3-4.3s-0.2-3.3-0.3-3.6c-0.1-0.3-0.3-0.6-0.7-0.8c-0.4-0.2-1.3-0.3-2.9-0.3v-4.4h1
	c2,0,3.5,0.2,4.5,0.7c1.1,0.4,1.9,1.2,2.3,2.2c0.5,1,0.7,2.6,0.7,4.9c0,2.6,0.1,4.2,0.3,4.9c0.2,0.6,0.5,1.3,1,1.8
	c0.5,0.6,1.4,0.8,2.7,0.9V39.1z"/>
<path class="st0" d="M60.5,14.8L36.9,1.2c-2.7-1.6-6.1-1.6-8.9,0L4.4,14.8C1.7,16.4,0,19.3,0,22.5v27.2c0,3.2,1.7,6.1,4.4,7.7L28,71
	c2.7,1.6,6.1,1.6,8.9,0l23.6-13.6c2.7-1.6,4.4-4.5,4.4-7.7V22.5C65,19.3,63.3,16.4,60.5,14.8z"/>
<g class="st1">
	<g transform="translate(0, -64.415), scale(1.2)" class="st2">
		<path class="st3" d="M30.1,79.2c0-1.6-1.4-3-3-3c-1.7,0-3,1.3-3,3c0,0.8,0.3,1.5,0.8,2.1c0.7,0.8,0.6,1.7,0.6,1.7
			c0,0.2,0.1,0.4,0.3,0.5v0.8l0.6,0.6h1.2l0.6-0.6v-0.8l0,0c0.2-0.1,0.3-0.3,0.4-0.5c0,0-0.1-0.9,0.6-1.7
			C29.8,80.7,30.1,79.9,30.1,79.2z M29.1,79.2c0,0.5-0.2,1-0.5,1.3c-0.5,0.5-0.8,1.2-0.9,1.9h-1.1c-0.1-0.7-0.4-1.4-0.9-1.9
			c-0.3-0.4-0.5-0.9-0.5-1.4c0-1.1,0.9-1.9,2-2C28.2,77.2,29.1,78.1,29.1,79.2z"/>
		<path class="st3" d="M34.9,79.7L34.9,79.7c-0.5-0.2-0.5-0.6-0.5-1.6v-1.6c0-1-0.5-1.5-1.5-1.5h-0.5c-0.4,0-0.6,0.2-0.6,0.5
			S32,76,32.4,76h0.2c0.3,0,0.5,0.2,0.5,0.5v2.1c0,1.1,0.4,1.6,0.9,1.8c-0.5,0.1-1,0.6-1,1.7v2.1c0,0.3-0.2,0.5-0.5,0.5h-0.2
			c-0.4,0-0.6,0.2-0.6,0.5s0.2,0.5,0.6,0.5h0.5c0.9,0,1.5-0.5,1.5-1.5v-1.6c0-1,0-1.5,0.5-1.6c0.4-0.1,0.7-0.2,0.7-0.6
			C35.5,79.9,35.3,79.8,34.9,79.7z"/>
		<path class="st3" d="M21.8,84.6h-0.2c-0.3,0-0.5-0.2-0.5-0.5V82c0-1.1-0.4-1.6-0.9-1.8c0.5-0.2,0.9-0.7,0.9-1.8v-2.1
			c0-0.3,0.2-0.5,0.5-0.5h0.2c0.4,0,0.6-0.2,0.6-0.5s-0.2-0.5-0.6-0.5h-0.5c-1,0-1.5,0.5-1.5,1.5v1.6c0,1,0,1.5-0.5,1.6
			c-0.4,0.1-0.7,0.2-0.7,0.6s0.3,0.5,0.7,0.6c0.5,0.2,0.5,0.6,0.5,1.6v1.6c0,1,0.5,1.5,1.5,1.5h0.5c0.4,0,0.6-0.2,0.6-0.5
			S22.2,84.6,21.8,84.6z"/>
	</g>
	<g class="st2">
		<rect x="14" y="19.6" class="st4" width="37" height="24.3"/>
		<rect x="31.9" y="44.9" class="st4" width="1.3" height="5.7"/>
		<rect x="26.8" y="49.8" class="st4" width="11.3" height="1"/>
	</g>
</g>
<g class="st1">
	<g transform="translate(0, -64.415), scale(1.2)" class="st2">
		<path class="st3" d="M31,78.8c0-2.1-1.8-3.9-3.9-3.9c-2.2,0-3.9,1.7-3.9,3.9c0,1,0.4,2,1.1,2.7c0.9,1,0.8,2.2,0.8,2.2
			c0,0.3,0.2,0.5,0.4,0.6l0.1,1.1l0.8,0.8h1.5l0.8-0.8v-1.1l0,0c0.3-0.1,0.4-0.3,0.5-0.7c0,0-0.1-1.2,0.8-2.2
			C30.6,80.8,31,79.8,31,78.8z M29.7,78.8c0,0.6-0.3,1.3-0.7,1.8c-0.7,0.7-1.1,1.6-1.2,2.5h-1.5c-0.1-0.9-0.5-1.8-1.1-2.4
			c-0.4-0.5-0.7-1.1-0.7-1.8c0-1.4,1.1-2.5,2.6-2.5C28.5,76.3,29.7,77.4,29.7,78.8z"/>
		<path class="st3" d="M37.2,79.5L37.2,79.5c-0.7-0.2-0.7-0.8-0.7-2.1v-2.1c0-1.3-0.7-2-1.9-2H34c-0.6,0-0.8,0.2-0.8,0.7
			c0,0.4,0.3,0.7,0.8,0.7h0.2c0.4,0,0.6,0.3,0.6,0.7V78c0,1.4,0.5,2,1.1,2.3c-0.6,0.2-1.1,0.9-1.1,2.3v2.7c0,0.4-0.2,0.7-0.6,0.7H34
			c-0.6,0-0.8,0.2-0.8,0.7s0.3,0.7,0.8,0.7h0.6c1.2,0,1.9-0.7,1.9-2v-2.1c0-1.3,0-1.9,0.7-2.1c0.5-0.1,0.9-0.3,0.9-0.8
			C38.1,79.8,37.7,79.7,37.2,79.5z"/>
		<path class="st3" d="M20.2,85.9H20c-0.4,0-0.6-0.3-0.6-0.7v-2.7c0-1.4-0.5-2-1.1-2.3c0.6-0.2,1.1-0.9,1.1-2.3v-2.7
			c0-0.4,0.2-0.7,0.6-0.7h0.2c0.6,0,0.8-0.2,0.8-0.7c0-0.4-0.3-0.7-0.8-0.7h-0.6c-1.2,0-1.9,0.7-1.9,2v2.1c0,1.3,0,1.9-0.7,2.1
			c-0.5,0.1-0.9,0.3-0.9,0.8s0.4,0.6,0.9,0.8c0.7,0.2,0.7,0.8,0.7,2.1v2.1c0,1.3,0.7,2,1.9,2h0.6c0.6,0,0.8-0.2,0.8-0.7
			S20.7,85.9,20.2,85.9z"/>
	</g>
	<g class="st2">
		<rect x="14" y="19.6" class="st4" width="37" height="24.3"/>
		<rect x="31.9" y="44.9" class="st4" width="1.3" height="5.7"/>
		<rect x="26.8" y="49.8" class="st4" width="11.3" height="1"/>
	</g>
</g>
<g>
	<path class="st3" d="M29.5,39.1c0,0.5,0.2,0.8,0.6,1l0.1,1.5l1.2,1.1h2.1l1.2-1.2v-1.5l0,0c0.4-0.1,0.6-0.5,0.7-1
		c0,0-0.2-1.7,1.2-3.1c1-1,1.5-2.4,1.5-3.8c0-3.1-2.5-5.6-5.6-5.6S27,28.9,27,31.9c0,1.4,0.5,2.9,1.5,3.9
		C29.6,37.4,29.5,39.1,29.5,39.1z M32.5,28.5c2.1,0,3.7,1.7,3.7,3.7c0,1-0.4,1.8-1,2.5c-1,1.1-1.5,2.3-1.7,3.6h-2
		c-0.1-1.3-0.7-2.5-1.7-3.4c-0.6-0.7-1-1.5-1-2.6C28.8,30.1,30.4,28.6,32.5,28.5z"/>
	<path class="st3" d="M43.4,37.5v3.8c0,0.6-0.4,1-0.8,1h-0.4c-0.8,0-1.2,0.4-1.2,1s0.4,1,1.2,1h1c1.8,0,2.7-1.1,2.7-2.9v-3
		c0-1.8,0-2.7,1-3c0.6-0.1,1.2-0.4,1.2-1.2c0-0.7-0.5-1-1.2-1.2l0,0c-1-0.2-1-1.2-1-3v-3c0-1.9-1-2.9-2.7-2.9h-1
		c-0.8,0-1.2,0.4-1.2,1s0.4,1,1.2,1h0.4c0.5,0,0.8,0.4,0.8,1v3.8c0,2,0.8,2.9,1.7,3.2C44.3,34.5,43.4,35.5,43.4,37.5z"/>
	<g>
		<path class="st3" d="M18,35.4c1,0.2,1,1.2,1,3v3c0,1.8,1,2.9,2.7,2.9h1c0.8,0,1.2-0.4,1.2-1s-0.4-1-1.2-1h-0.4
			c-0.5,0-0.8-0.4-0.8-1v-3.8c0-2-0.8-2.9-1.7-3.2c0.8-0.4,1.7-1.2,1.7-3.2v-3.8c0-0.6,0.4-1,0.8-1h0.4c0.8,0,1.2-0.4,1.2-1
			s-0.4-1-1.2-1h-1c-1.8,0-2.7,1-2.7,2.9v3c0,1.8,0,2.7-1,3c-0.6,0.1-1.2,0.4-1.2,1.2C16.8,34.9,17.3,35.1,18,35.4z"/>
		<path class="st3" d="M54.5,17.9h-44c-1,0-1.7,0.7-1.7,1.7v28.9c0,1,0.7,1.7,1.7,1.7h19.6v3.7h-4.3c-1,0-1.7,0.7-1.7,1.7v1.2
			c0,1,0.7,1.7,1.7,1.7h13.4c1,0,1.7-0.7,1.7-1.7v-1.2c0-1-0.7-1.7-1.7-1.7H35v-3.7h19.5c1,0,1.7-0.7,1.7-1.7V19.5
			C56.2,18.6,55.3,17.9,54.5,17.9z M52.7,46.8H12.2V21.2h40.7v25.6H52.7z"/>
	</g>
</g>
</svg>
